<mxfile host="app.diagrams.net" modified="2020-12-01T00:59:39.835Z" agent="5.0 (Macintosh; Intel Mac OS X 10_14_4) AppleWebKit/537.36 (KHTML, like Gecko) Chrome/86.0.4240.198 Safari/537.36" etag="tDXATrtsafPEQfIYmLBz" version="13.10.4" type="github">
  <diagram id="DuqriHruExwWqD1Pvg3U" name="Page-1">
    <mxGraphModel dx="530" dy="408" grid="1" gridSize="10" guides="1" tooltips="1" connect="1" arrows="1" fold="1" page="1" pageScale="1" pageWidth="827" pageHeight="1169" math="0" shadow="0">
      <root>
        <mxCell id="0" />
        <mxCell id="1" parent="0" />
      </root>
    </mxGraphModel>
  </diagram>
</mxfile>
